<?xml version="1.0" encoding="UTF-8"?>
<svg width="32" height="32" viewBox="0 0 32 32" xmlns="http://www.w3.org/2000/svg">
  <defs>
    <linearGradient id="bgGrad" x1="0%" y1="0%" x2="0%" y2="100%">
      <stop offset="0%" style="stop-color:#2E5BFF"/>
      <stop offset="100%" style="stop-color:#6B46C1"/>
    </linearGradient>
  </defs>
  
  <!-- Background -->
  <rect width="32" height="32" rx="6" fill="url(#bgGrad)"/>
  
  <!-- Simplified P with pulse -->
  <g transform="translate(6, 4)">
    <path d="M0,0 L0,24 L3,24 L3,14 L10,14 C14,14 17,11 17,7 C17,3 14,0 10,0 Z M3,3 L10,3 C12,3 14,5 14,7 C14,9 12,11 10,11 L3,11 Z" 
          fill="white"/>
    <!-- Pulse line -->
    <path d="M1,5 L3,5 L4,2 L5,8 L6,3 L7,6 L8,5 L12,5" 
          stroke="#2E5BFF" 
          stroke-width="1" 
          fill="none"/>
  </g>
  
  <!-- AI badge -->
  <circle cx="24" cy="8" r="6" fill="#3B82F6"/>
  <text x="24" y="11" font-family="Arial" font-size="6" font-weight="bold" fill="white" text-anchor="middle">AI</text>
</svg>
